<?xml version="1.0" standalone="no"?>
<!DOCTYPE svg PUBLIC "-//W3C//DTD SVG 1.1//EN" "http://www.w3.org/Graphics/SVG/1.1/DTD/svg11.dtd">
<svg xmlns="http://www.w3.org/2000/svg" xmlns:xlink="http://www.w3.org/1999/xlink" xmlns:svgjs="http://svgjs.dev/svgjs" version="1.1" width="1500" height="935" viewBox="0 0 1500 935"><g transform="matrix(1,0,0,1,-0.9090909090909918,0.3785425101214628)"><svg xmlns="http://www.w3.org/2000/svg" xmlns:xlink="http://www.w3.org/1999/xlink" viewBox="0 0 396 247" data-background-color="#ffffff" preserveAspectRatio="xMidYMid meet" height="935" width="1500"><g id="tight-bounds" transform="matrix(1,0,0,1,0.2400000000000091,-0.09999999999999432)"><svg viewBox="0 0 395.52 247.2" height="247.2" width="395.52"><g><svg/></g><g><svg viewBox="0 0 395.52 247.2" height="247.2" width="395.52"><g transform="matrix(1,0,0,1,75.54432,93.31652769331875)"><svg viewBox="0 0 244.43135999999998 60.566944613362494" height="60.566944613362494" width="244.43135999999998"><g><svg viewBox="0 0 244.43135999999998 60.566944613362494" height="60.566944613362494" width="244.43135999999998"><g><svg viewBox="0 0 244.43135999999998 60.566944613362494" height="60.566944613362494" width="244.43135999999998"><g><svg viewBox="0 0 244.43135999999998 60.566944613362494" height="60.566944613362494" width="244.43135999999998"><g id="textblocktransform"><svg viewBox="0 0 244.43135999999998 60.566944613362494" height="60.566944613362494" width="244.43135999999998" id="textblock"><g><svg viewBox="0 0 244.43135999999998 36.1361564829772" height="36.1361564829772" width="244.43135999999998"><g transform="matrix(1,0,0,1,0,0)"><svg width="244.43135999999998" viewBox="3.624999999999999 -35.55 244.515 36.15" height="36.1361564829772" data-palette-color="#636365"><path d="M13.45-35L25.35-5.55 37.7-35Q38.45-34.95 39.3-34.95 40.15-34.95 40.7-34.95L40.7-34.95Q41-34.95 41.78-34.98 42.55-35 43.5-35 44.45-35 45.23-35.02 46-35.05 46.3-35.05L46.3-35.05Q46.35-34.6 46.3-34.1L46.3-34.1 46.25-34.1Q44.55-33.95 43.8-33.77 43.05-33.6 42.88-33.05 42.7-32.5 42.7-31.2L42.7-31.2 43.15-4.25Q43.2-2.75 43.43-2.1 43.65-1.45 44.48-1.25 45.3-1.05 47.05-0.9L47.05-0.9Q47.1-0.45 47.05 0.05L47.05 0.05Q46.75 0.05 45.93 0.03 45.1 0 44.1 0 43.1 0 42.28-0.03 41.45-0.05 41.15-0.05L41.15-0.05Q40.85-0.05 40.08-0.03 39.3 0 38.38 0 37.45 0 36.65 0.03 35.85 0.05 35.55 0.05L35.55 0.05Q35.5-0.45 35.55-0.9L35.55-0.9Q37.2-1.05 37.98-1.23 38.75-1.4 38.98-1.98 39.2-2.55 39.15-3.8L39.15-3.8 38.7-33.05 24.95-0.05Q24.7 0.05 24.18 0.1 23.65 0.15 23.25 0.15L23.25 0.15 10.25-32.25 9.35-3.8Q9.3-2.6 9.47-2.08 9.65-1.55 10.43-1.35 11.2-1.15 12.9-0.9L12.9-0.9Q12.95-0.45 12.9 0.05L12.9 0.05Q12.55 0.05 11.6 0.03 10.65 0 9.73-0.03 8.8-0.05 8.4-0.05L8.4-0.05Q8.15-0.05 7.1-0.03 6.05 0 5 0.03 3.95 0.05 3.65 0.05L3.65 0.05Q3.6-0.45 3.65-0.9L3.65-0.9Q5.4-1.1 6.18-1.33 6.95-1.55 7.2-2.2 7.45-2.85 7.5-4.25L7.5-4.25 8.5-31.2Q8.55-32.5 8.35-33.05 8.15-33.6 7.35-33.77 6.55-33.95 4.75-34.1L4.75-34.1Q4.7-34.6 4.75-35.05L4.75-35.05Q6-35.05 7.4-35 8.8-34.95 10.35-34.95L10.35-34.95Q10.9-34.95 11.8-34.95 12.7-34.95 13.45-35L13.45-35ZM64.7-16.3L64.7-16.3 63.45-16.4 63.45-4.3Q63.45-2.8 63.65-2.13 63.85-1.45 64.62-1.28 65.4-1.1 67.2-0.95L67.2-0.95Q67.25-0.45 67.2 0.05L67.2 0.05Q66.5 0.05 65.37 0.03 64.25 0 63.17-0.03 62.1-0.05 61.4-0.05L61.4-0.05Q60.75-0.05 59.67-0.03 58.6 0 57.55 0.03 56.5 0.05 55.8 0.05L55.8 0.05Q55.75-0.45 55.8-0.95L55.8-0.95Q57.55-1.1 58.32-1.25 59.1-1.4 59.27-1.98 59.45-2.55 59.45-3.85L59.45-3.85 59.45-30.75Q59.45-32.25 59.25-32.9 59.05-33.55 58.27-33.75 57.5-33.95 55.8-34.05L55.8-34.05Q55.75-34.55 55.8-35.05L55.8-35.05Q56.5-35.05 57.57-35.02 58.65-35 59.72-34.98 60.8-34.95 61.45-34.95L61.45-34.95Q62.1-34.95 63.4-34.98 64.7-35 66-35.02 67.3-35.05 67.9-35.05L67.9-35.05Q70.75-35.05 73.2-34.2 75.65-33.35 77.17-31.48 78.7-29.6 78.7-26.45L78.7-26.45Q78.7-22.75 76.5-20.45 74.3-18.15 70.6-17L70.6-17 70.6-16.85Q71.3-16.5 71.92-15.98 72.55-15.45 73.35-14.45L73.35-14.45Q73.95-13.7 75.07-12.05 76.2-10.4 77.47-8.47 78.75-6.55 79.8-4.9L79.8-4.9Q80.95-3.1 81.75-2.33 82.55-1.55 83.5-1.33 84.45-1.1 86.05-0.95L86.05-0.95Q86.1-0.45 86.05 0.05L86.05 0.05Q85.35 0.05 84.25 0.03 83.15 0 82.12-0.03 81.1-0.05 80.55-0.05L80.55-0.05Q79.95-0.05 79.4-0.03 78.85 0 78.3 0L78.3 0Q77.75-0.95 76.7-2.63 75.65-4.3 74.35-6.3 73.05-8.3 71.77-10.23 70.5-12.15 69.5-13.5L69.5-13.5Q68.65-14.7 68-15.25 67.35-15.8 66.62-16 65.9-16.2 64.7-16.3ZM63.45-33.45L63.45-17.9Q64.1-17.8 64.6-17.78 65.1-17.75 65.55-17.75L65.55-17.75Q69.55-17.75 71.97-19.73 74.4-21.7 74.4-25.9L74.4-25.9Q74.4-29.65 72.35-31.63 70.3-33.6 66.3-33.6L66.3-33.6Q65.05-33.6 63.45-33.45L63.45-33.45ZM134.09-8.5L134.09-8.5Q133.89-6.9 133.67-4.78 133.44-2.65 133.34-0.95L133.34-0.95Q131.09-0.5 128.12 0.05 125.14 0.6 121.89 0.6L121.89 0.6Q115.94 0.6 111.67-1.63 107.39-3.85 105.12-7.85 102.84-11.85 102.84-17.2L102.84-17.2Q102.84-22.6 105.14-26.73 107.44-30.85 111.72-33.2 115.99-35.55 121.99-35.55L121.99-35.55Q123.59-35.55 125.34-35.38 127.09-35.2 129.29-34.8L129.29-34.8Q130.14-34.65 130.94-34.5 131.74-34.35 132.64-34.35L132.64-34.35Q132.79-34.35 132.97-34.35 133.14-34.35 133.44-34.4L133.44-34.4Q133.49-32.8 133.62-30.5 133.74-28.2 133.84-26.35L133.84-26.35Q133.54-26.3 133.34-26.28 133.14-26.25 132.89-26.25L132.89-26.25Q132.34-30.1 129.54-32.1 126.74-34.1 121.84-34.1L121.84-34.1Q117.64-34.1 114.84-32.73 112.04-31.35 110.39-29.03 108.74-26.7 108.04-23.73 107.34-20.75 107.34-17.6L107.34-17.6Q107.34-14.2 108.12-11.18 108.89-8.15 110.69-5.85 112.49-3.55 115.44-2.23 118.39-0.9 122.74-0.9L122.74-0.9Q127.69-0.9 129.99-2.8 132.29-4.7 133.04-8.5L133.04-8.5Q133.14-8.5 133.27-8.53 133.39-8.55 133.54-8.55L133.54-8.55Q133.64-8.55 133.79-8.53 133.94-8.5 134.09-8.5ZM176.24-17.75L176.24-17.75Q176.24-12.35 173.99-8.22 171.74-4.1 167.64-1.75 163.54 0.6 157.94 0.6L157.94 0.6Q152.39 0.6 148.39-1.7 144.39-4 142.24-8.03 140.09-12.05 140.09-17.2L140.09-17.2Q140.09-22.5 142.34-26.65 144.59-30.8 148.72-33.18 152.84-35.55 158.44-35.55L158.44-35.55Q163.94-35.55 167.92-33.27 171.89-31 174.06-26.98 176.24-22.95 176.24-17.75ZM171.79-17.25L171.79-17.25Q171.79-20.4 171.04-23.4 170.29-26.4 168.69-28.8 167.09-31.2 164.49-32.63 161.89-34.05 158.19-34.05L158.19-34.05Q154.49-34.05 151.89-32.63 149.29-31.2 147.69-28.8 146.09-26.4 145.34-23.48 144.59-20.55 144.59-17.55L144.59-17.55Q144.59-14.55 145.34-11.6 146.09-8.65 147.74-6.2 149.39-3.75 152.04-2.3 154.69-0.85 158.44-0.85L158.44-0.85Q162.14-0.85 164.72-2.25 167.29-3.65 168.84-5.98 170.39-8.3 171.09-11.25 171.79-14.2 171.79-17.25ZM189.54-34.95L189.54-34.95Q190.49-34.95 191.81-34.98 193.14-35 194.49-35.02 195.84-35.05 196.74-35.05L196.74-35.05Q207.09-35.05 212.66-30.6 218.24-26.15 218.24-17.6L218.24-17.6Q218.24-12.95 216.64-9.58 215.04-6.2 212.19-4.03 209.34-1.85 205.51-0.83 201.69 0.2 197.24 0.2L197.24 0.2Q195.34 0.2 193.11 0.08 190.89-0.05 189.39-0.05L189.39-0.05Q188.74-0.05 187.66-0.03 186.59 0 185.51 0.03 184.44 0.05 183.69 0.05L183.69 0.05Q183.64-0.45 183.69-0.95L183.69-0.95Q185.39-1.1 186.14-1.25 186.89-1.4 187.06-1.98 187.24-2.55 187.24-3.85L187.24-3.85 187.24-30.7Q187.24-32.2 187.01-32.85 186.79-33.5 186.04-33.73 185.29-33.95 183.59-34.05L183.59-34.05Q183.54-34.55 183.59-35.05L183.59-35.05Q184.84-35.05 186.49-35 188.14-34.95 189.54-34.95ZM191.24-33.35L191.24-33.35 191.24-1.9Q192.84-1.6 194.46-1.45 196.09-1.3 197.59-1.3L197.59-1.3Q205.74-1.3 209.84-5.45 213.94-9.6 213.94-16.85L213.94-16.85Q213.94-24.6 209.34-29.08 204.74-33.55 195.94-33.55L195.94-33.55Q194.59-33.55 193.21-33.48 191.84-33.4 191.24-33.35ZM225.69 0.05L225.69 0.05Q225.64-0.45 225.69-0.95L225.69-0.95Q227.39-1.1 228.14-1.28 228.89-1.45 229.06-2 229.24-2.55 229.24-3.85L229.24-3.85 229.24-30.7Q229.24-32.2 229.04-32.85 228.84-33.5 228.11-33.73 227.39-33.95 225.69-34.05L225.69-34.05Q225.64-34.55 225.69-35.05L225.69-35.05Q226.94-35.05 227.81-35.02 228.69-35 229.86-34.98 231.04-34.95 233.09-34.95L233.09-34.95Q235.24-34.95 237.44-34.98 239.64-35 241.54-35 243.44-35 244.69-35.02 245.94-35.05 246.14-35.05L246.14-35.05Q246.44-32.2 246.99-29L246.99-29Q246.44-28.95 245.99-29L245.99-29Q245.59-30.35 245.14-31.18 244.69-32 244.19-32.45L244.19-32.45Q243.54-33.05 242.56-33.25 241.59-33.45 240.14-33.45L240.14-33.45 233.24-33.45 233.24-18.85 238.49-18.85Q240.24-18.85 241.09-19.05 241.94-19.25 242.29-20.08 242.64-20.9 242.89-22.75L242.89-22.75Q243.44-22.8 243.94-22.75L243.94-22.75Q243.94-22.4 243.89-21.03 243.84-19.65 243.84-17.95L243.84-17.95Q243.84-16.4 243.89-15.03 243.94-13.65 243.94-13.2L243.94-13.2Q243.49-13.15 242.89-13.2L242.89-13.2Q242.69-15.2 242.34-16.03 241.99-16.85 241.19-17.05 240.39-17.25 238.79-17.25L238.79-17.25 233.24-17.25 233.24-1.55 239.89-1.55Q241.69-1.55 242.96-1.78 244.24-2 244.94-2.7L244.94-2.7Q245.44-3.2 246.01-4.3 246.59-5.4 247.19-6.9L247.19-6.9Q247.64-6.95 248.14-6.9L248.14-6.9Q247.74-4.9 247.46-3.05 247.19-1.2 247.04 0L247.04 0Q245.39 0 243.24 0 241.09 0 238.89-0.03 236.69-0.05 234.89-0.05 233.09-0.05 232.14-0.05L232.14-0.05Q230.44-0.05 229.36-0.03 228.29 0 227.49 0.03 226.69 0.05 225.69 0.05Z" opacity="1" transform="matrix(1,0,0,1,0,0)" fill="#636365" class="wordmark-text-0" data-fill-palette-color="primary" id="text-0"/></svg></g></svg></g><g transform="matrix(1,0,0,1,162.94178015702067,44.66703576085253)"><svg viewBox="0 0 81.48957984297931 15.899908852509967" height="15.899908852509967" width="81.48957984297931"><g transform="matrix(1,0,0,1,0,0)"><svg width="81.48957984297931" viewBox="2.39 -43.29 292.90000000000003 57.16" height="15.899908852509967" data-palette-color="#e0c203"><path d="M10.4-4.05L2.49-34.89Q2.39-35.28 2.39-35.89 2.39-36.5 2.77-36.96 3.15-37.43 3.83-37.43L3.83-37.43 7.32-37.43Q8.5-37.43 8.81-35.94L8.81-35.94 12.82-18.12Q12.89-17.72 13.09-16.8L13.09-16.8Q15.04-7.23 15.16-6.52L15.16-6.52 15.33-5.57Q15.36-5.35 15.55-5.35L15.55-5.35Q15.94-5.35 16.16-5.91L16.16-5.91Q17.43-9.16 18.31-12.72L18.31-12.72 20.07-19.82Q20.9-23.34 21.58-26.84 22.27-30.35 23.1-33.96L23.1-33.96Q23.63-36.33 26.1-36.33L26.1-36.33 28.54-36.33Q30.81-36.33 31.57-33.96L31.57-33.96Q33.15-28.66 33.69-26.56L33.69-26.56 38.96-5.47Q39.04-5.08 39.36-5.08L39.36-5.08Q39.65-5.08 39.88-5.73 40.11-6.37 40.52-7.67 40.92-8.96 41.36-10.55L41.36-10.55 42.21-13.87Q43.6-19.53 44.07-23.06 44.53-26.59 44.69-27.98 44.85-29.37 44.92-30.47L44.92-30.47Q45.07-32.2 45.07-33.59 45.07-34.99 45.12-35.52 45.17-36.06 45.36-36.47L45.36-36.47Q45.83-37.43 47.17-37.43L47.17-37.43 49.39-37.43Q51.17-37.43 51.42-35.82L51.42-35.82Q51.51-35.3 51.51-34.67 51.51-34.03 51.46-32.92 51.42-31.81 51.27-30.37L51.27-30.37Q50.42-20.92 46.41-8.52L46.41-8.52Q44.48-2.54 43.12-1.1L43.12-1.1Q42.09 0 40.28 0L40.28 0 38.35 0Q34.77 0 33.69-4.27L33.69-4.27 27.44-29.2Q27.42-29.32 27.29-29.32L27.29-29.32Q27.17-29.32 27.17-29.2L27.17-29.2 25.83-21.92Q24.07-11.84 21.26-4.15L21.26-4.15Q20.36-1.61 19.78-1.03L19.78-1.03Q18.75 0 16.72 0L16.72 0 14.77 0Q12.94 0 11.94-0.94 10.94-1.88 10.4-4.05L10.4-4.05ZM62.62-12.43L62.62-12.43 62.6-11.96Q62.6-8.62 64.72-6.59L64.72-6.59Q66.94-4.44 70.75-4.44L70.75-4.44Q74.22-4.44 77.19-6.52L77.19-6.52Q77.76-6.91 78.2-6.91L78.2-6.91Q79.1-6.91 79.56-6.01L79.56-6.01 80.22-4.64Q80.44-4.15 80.44-3.59 80.44-3.03 79.94-2.43 79.44-1.83 78.64-1.34 77.83-0.85 76.77-0.49 75.71-0.12 74.58 0.12L74.58 0.12Q72.34 0.61 69.89 0.61 67.45 0.61 64.98-0.32 62.5-1.25 60.69-3.03L60.69-3.03Q56.81-6.81 56.81-13.26L56.81-13.26Q56.81-24.56 64.77-27.32L64.77-27.32Q67.26-28.17 69.88-28.17 72.51-28.17 74.35-27.61 76.19-27.05 77.54-25.95L77.54-25.95Q80.37-23.63 80.37-19.48L80.37-19.48Q80.37-15.41 77.05-13.26L77.05-13.26Q74.14-11.38 69.38-11.38L69.38-11.38Q66.45-11.38 62.62-12.43ZM74.63-19.56L74.63-19.56Q74.63-23.05 69.94-23.05L69.94-23.05Q65.48-23.05 63.69-19.78L63.69-19.78Q63.06-18.63 62.86-16.94L62.86-16.94Q64.96-15.89 68.21-15.89L68.21-15.89Q74.63-15.89 74.63-19.56ZM90.99 0L89.62 0Q88.15 0 88.15-1.88L88.15-1.88 88.15-41.7Q88.15-42.36 88.52-42.82 88.89-43.29 89.45-43.29L89.45-43.29 92.77-43.29Q93.33-43.29 93.71-42.82 94.09-42.36 94.09-41.7L94.09-41.7 94.09-23.85Q97.21-28.15 103.02-28.15L103.02-28.15Q108.34-28.15 111.18-24.22L111.18-24.22Q113.74-20.65 113.74-14.72L113.74-14.72Q113.74-7.79 110.4-3.56L110.4-3.56Q107.1 0.59 102.05 0.59L102.05 0.59Q99.31 0.59 96.98-0.65 94.65-1.88 93.21-4.42L93.21-4.42Q93.16-3.66 93.07-2.93 92.99-2.2 92.96-1.51L92.96-1.51Q92.87 0 90.99 0L90.99 0ZM95.81-20.35Q94.79-19.09 94.26-17.42 93.72-15.75 93.72-13.93 93.72-12.11 94.26-10.41 94.79-8.72 95.75-7.37L95.75-7.37Q97.85-4.44 100.95-4.44L100.95-4.44Q104.41-4.44 106.15-7.47L106.15-7.47Q107.56-9.99 107.56-13.96L107.56-13.96Q107.56-20.53 104.19-22.41L104.19-22.41Q103.02-23.07 101.34-23.07 99.65-23.07 98.24-22.34 96.82-21.61 95.81-20.35ZM134.85-2.15L134.85-35.3Q134.85-36.16 135.43-36.79 136-37.43 137.03-37.43L137.03-37.43 144.77-37.43Q154.43-37.43 159.32-32.64L159.32-32.64Q163.95-28.05 163.95-19.53L163.95-19.53Q163.95-10.42 158.74-5.21 153.53 0 144.33 0L144.33 0 137.03 0Q136 0 135.43-0.65 134.85-1.29 134.85-2.15L134.85-2.15ZM145.5-32.06L145.5-32.06 144.28-32.06Q143.47-32.06 140.98-31.98L140.98-31.98 140.98-5.4 144.96-5.32 145.11-5.32Q154.56-5.32 156.73-13.48L156.73-13.48Q157.44-16.11 157.44-19.32 157.44-22.53 156.67-24.87 155.9-27.2 154.38-28.81L154.38-28.81Q151.33-32.06 145.5-32.06ZM175.06-12.43L175.06-12.43 175.04-11.96Q175.04-8.62 177.16-6.59L177.16-6.59Q179.38-4.44 183.19-4.44L183.19-4.44Q186.66-4.44 189.64-6.52L189.64-6.52Q190.2-6.91 190.64-6.91L190.64-6.91Q191.54-6.91 192-6.01L192-6.01 192.66-4.64Q192.88-4.15 192.88-3.59 192.88-3.03 192.38-2.43 191.88-1.83 191.08-1.34 190.27-0.85 189.21-0.49 188.15-0.12 187.02 0.12L187.02 0.12Q184.78 0.61 182.34 0.61 179.89 0.61 177.42-0.32 174.94-1.25 173.13-3.03L173.13-3.03Q169.25-6.81 169.25-13.26L169.25-13.26Q169.25-24.56 177.21-27.32L177.21-27.32Q179.7-28.17 182.32-28.17 184.95-28.17 186.79-27.61 188.63-27.05 189.98-25.95L189.98-25.95Q192.81-23.63 192.81-19.48L192.81-19.48Q192.81-15.41 189.49-13.26L189.49-13.26Q186.58-11.38 181.82-11.38L181.82-11.38Q178.89-11.38 175.06-12.43ZM187.07-19.56L187.07-19.56Q187.07-23.05 182.38-23.05L182.38-23.05Q177.92-23.05 176.13-19.78L176.13-19.78Q175.5-18.63 175.3-16.94L175.3-16.94Q177.4-15.89 180.65-15.89L180.65-15.89Q187.07-15.89 187.07-19.56ZM207.77-4.39L207.77-4.39Q212.46-4.39 212.46-7.54L212.46-7.54Q212.46-9.28 209.8-10.47L209.8-10.47Q208.68-10.99 207.35-11.43 206.02-11.87 204.79-12.48 203.57-13.09 202.51-13.81 201.45-14.53 200.67-15.45L200.67-15.45Q199.06-17.41 199.06-20.41L199.06-20.41Q199.06-24.07 202.11-26.22L202.11-26.22Q204.82-28.15 208.77-28.15L208.77-28.15Q213.02-28.15 215.88-26.49L215.88-26.49Q216.86-25.9 216.86-25.15L216.86-25.15Q216.86-24.07 216.28-22.79 215.71-21.51 214.94-21.51 214.17-21.51 213.55-21.83 212.92-22.14 212.42-22.38 211.92-22.61 211.36-22.75L211.36-22.75Q210.14-23.12 209.1-23.12 208.07-23.12 207.43-22.97 206.8-22.83 206.28-22.51L206.28-22.51Q205.04-21.75 205.04-20.65 205.04-19.56 205.54-18.97 206.04-18.38 206.92-17.9 207.8-17.41 209.02-16.92L209.02-16.92 211.65-15.82Q214.85-14.43 215.98-13.31L215.98-13.31Q218.17-11.06 218.17-8.11L218.17-8.11Q218.17-4.39 215.63-2L215.63-2Q212.83 0.61 207.65 0.61L207.65 0.61Q202.4 0.61 199.77-1.42L199.77-1.42Q198.47-2.39 198.47-3.17 198.47-3.96 198.75-4.58 199.03-5.2 199.48-6.04 199.94-6.88 200.71-6.88 201.47-6.88 202.34-6.19 203.21-5.49 204.72-4.94 206.24-4.39 207.77-4.39ZM228.11-32.25L228.11-32.25Q226.45-32.25 225.28-33.4L225.28-33.4Q224.1-34.52 224.1-36.23L224.1-36.23Q224.1-37.89 225.28-39.06L225.28-39.06Q226.4-40.19 228.11-40.19L228.11-40.19Q230.72-40.19 231.77-37.79L231.77-37.79Q232.09-37.08 232.09-36.23L232.09-36.23Q232.09-34.52 230.92-33.4L230.92-33.4Q229.74-32.25 228.11-32.25ZM230.96-25.93L230.96-6.71Q230.96-4.98 232.11-4.98L232.11-4.98Q232.5-4.98 232.99-5.2L232.99-5.2Q233.94-5.62 234.28-5.62L234.28-5.62Q234.8-5.62 235.11-4.91L235.11-4.91 235.87-3.2Q236.07-2.78 236.07-2.42L236.07-2.42Q236.07-1.37 234.26-0.46L234.26-0.46Q232.55 0.42 230.88 0.42 229.21 0.42 228.21 0.05 227.2-0.32 226.5-1.17L226.5-1.17Q225.08-2.93 225.08-6.88L225.08-6.88 225.08-25.93Q225.08-26.61 225.47-27.08 225.86-27.54 226.4-27.54L226.4-27.54 229.67-27.54Q230.23-27.54 230.6-27.08 230.96-26.61 230.96-25.93L230.96-25.93ZM248.52-2.61L248.52-2.61Q250.81-3.74 253.39-3.74 255.96-3.74 257.98-3.26 259.99-2.78 261.6-1.76L261.6-1.76Q265.21 0.54 265.21 4.66L265.21 4.66Q265.21 8.96 261.11 11.57L261.11 11.57Q257.48 13.87 252.37 13.87L252.37 13.87Q247.17 13.87 243.71 11.62L243.71 11.62Q239.97 9.18 239.97 4.98L239.97 4.98Q239.97-0.12 245.37-4.88L245.37-4.88Q247.47-6.71 250-8.18L250-8.18Q246.02-8.54 243.22-10.99L243.22-10.99Q240.07-13.75 240.07-17.85L240.07-17.85Q240.07-22.56 243.61-25.49L243.61-25.49Q246.86-28.15 251.35-28.15L251.35-28.15Q256.18-28.15 258.94-25.54L258.94-25.54Q259.79-24.73 260.31-23.71L260.31-23.71Q260.31-25.95 259.73-28.36 259.16-30.76 259.16-31.23 259.16-31.69 259.34-31.97 259.53-32.25 259.77-32.4L259.77-32.4Q260.14-32.62 260.6-32.62L260.6-32.62 262.7-32.62Q264.73-32.62 264.73-26.98L264.73-26.98Q264.73-22.46 262.92-18.65L262.92-18.65Q262.97-18.12 262.97-17.24 262.97-16.36 262.58-15.19 262.19-14.01 261.54-13 260.89-11.99 260.05-11.13 259.21-10.28 258.27-9.55 257.33-8.81 256.38-8.2L256.38-8.2Q251.03-4.81 249.98-3.97 248.93-3.13 248.52-2.61ZM247.39-13.95Q248.22-13.23 249.33-12.85 250.44-12.48 251.7-12.48 252.96-12.48 254.01-12.85 255.06-13.23 255.86-13.96L255.86-13.96Q257.57-15.5 257.57-17.92L257.57-17.92Q257.57-20.39 255.67-21.8L255.67-21.8Q253.98-23.05 251.52-23.05L251.52-23.05Q247.61-23.05 246.12-20.14L246.12-20.14Q245.63-19.19 245.63-17.93 245.63-16.67 246.1-15.67 246.56-14.67 247.39-13.95ZM246.22 1.9L246.22 1.9Q245.32 2.93 245.32 4.17 245.32 5.42 245.93 6.3 246.54 7.18 247.54 7.76L247.54 7.76Q249.47 8.86 252.37 8.86L252.37 8.86Q256.96 8.86 258.77 6.59L258.77 6.59Q259.36 5.83 259.36 4.69 259.36 3.54 258.63 2.73 257.91 1.93 256.84 1.49L256.84 1.49Q255.06 0.76 252.2 0.76L252.2 0.76Q247.81 0.76 246.22 1.9ZM270.92-25.78L270.92-25.78Q270.92-27.54 272.61-27.54L272.61-27.54 273.95-27.54Q275.32-27.54 275.81-26.51L275.81-26.51Q276.49-25.05 276.98-22.66L276.98-22.66Q279.18-26.66 283.52-27.78L283.52-27.78Q284.89-28.15 286.93-28.15 288.97-28.15 290.7-27.28 292.43-26.42 293.43-24.9L293.43-24.9Q295.29-22.14 295.29-16.77L295.29-16.77 295.29-1.61Q295.29-0.93 294.85-0.46 294.41 0 293.56 0L293.56 0 291.16 0Q290.24 0 289.8-0.46 289.36-0.93 289.36-1.61L289.36-1.61 289.36-16.8Q289.36-23.05 284.77-23.05L284.77-23.05Q282.08-23.05 279.86-20.8L279.86-20.8Q277.49-18.38 277.49-15.19L277.49-15.19 277.49-1.61Q277.49-0.93 277.08-0.46 276.66 0 275.81 0L275.81 0 273.29 0Q272.44 0 272-0.46 271.56-0.93 271.56-1.61L271.56-1.61 271.56-16.6Q271.56-21.51 271.24-23.45 270.92-25.39 270.92-25.78Z" opacity="1" transform="matrix(1,0,0,1,0,0)" fill="#e0c203" class="slogan-text-1" data-fill-palette-color="secondary" id="text-1"/></svg></g></svg></g></svg></g></svg></g></svg></g></svg></g></svg></g><path d="M193.989 87.317L193.989 24.29 392.609 24.29 392.609 222.91 193.989 222.91 193.989 159.883 197.247 159.883 197.247 219.651 389.35 219.651 389.35 27.549 197.247 27.549 197.247 87.317Z" fill="#636365" stroke="transparent" data-fill-palette-color="tertiary"/></svg></g><defs/></svg><rect width="395.52" height="247.2" fill="none" stroke="none" visibility="hidden"/></g></svg></g></svg>